HIERARCHY
ROOT pelvis
{
	OFFSET 0.000000 0.000000 0.000000
	CHANNELS 6 Xposition Yposition Zposition Zrotation Xrotation Yrotation
	JOINT lfemur
	{
		OFFSET 11.446000 0.000000 0.000000
		CHANNELS 3 Zrotation Xrotation Yrotation
		JOINT ltibia
		{
			OFFSET 0.000000 -42.030400 0.000000
			CHANNELS 3 Zrotation Xrotation Yrotation
			JOINT lfoot
			{
				OFFSET 0.000000 -39.930200 0.000000
				CHANNELS 3 Zrotation Xrotation Yrotation
				JOINT ltoes
				{
					OFFSET 0.000000 0.000000 11.775800
					CHANNELS 3 Zrotation Xrotation Yrotation
					End Site
					{
					    OFFSET 0.000000 0.000000 5.000000
					}
				}
			}
		}
	}
	JOINT rfemur
	{
		OFFSET -11.446000 0.000000 0.000000
		CHANNELS 3 Zrotation Xrotation Yrotation
		JOINT rtibia
		{
			OFFSET 0.000000 -42.030400 0.000000
			CHANNELS 3 Zrotation Xrotation Yrotation
			JOINT rfoot
			{
				OFFSET 0.000000 -39.930200 0.000000
				CHANNELS 3 Zrotation Xrotation Yrotation
				JOINT rtoes
				{
					OFFSET 0.000000 0.000000 11.775800
					CHANNELS 3 Zrotation Xrotation Yrotation
					End Site
					{
					    OFFSET 0.000000 0.000000 5.000000
					}
				}
			}
		}
	}
	JOINT thorax
	{
		OFFSET 0.000000 11.255600 -5.000000
		CHANNELS 3 Zrotation Xrotation Yrotation
		JOINT head
		{
			OFFSET 0.000000 43.799300 0.000000
			CHANNELS 3 Zrotation Xrotation Yrotation
			End Site
			{
			    OFFSET 0.000000 5.000000 0.000000
			}
		}
		JOINT lclavicle
		{
			OFFSET 0.000000 39.863000 0.000000
			CHANNELS 3 Zrotation Xrotation Yrotation
			JOINT lhumerus
			{
				OFFSET 17.380600 4.958300 0.000000
				CHANNELS 3 Zrotation Xrotation Yrotation
				JOINT lradius
				{
					OFFSET 0.000000 -27.561300 0.000000
					CHANNELS 3 Zrotation Xrotation Yrotation
					JOINT lhand
					{
						OFFSET 0.000000 -26.933000 0.000000
						CHANNELS 3 Zrotation Xrotation Yrotation
						End Site
						{
						    OFFSET 0.000000 -5.000000 0.000000
						}
					}
				}
			}
		}
		JOINT rclavicle
		{
			OFFSET 0.000000 39.863000 0.000000
			CHANNELS 3 Zrotation Xrotation Yrotation
			JOINT rhumerus
			{
				OFFSET -17.380600 4.958300 0.000000
				CHANNELS 3 Zrotation Xrotation Yrotation
				JOINT rradius
				{
					OFFSET 0.000000 -27.561300 0.000000
					CHANNELS 3 Zrotation Xrotation Yrotation
					JOINT rhand
					{
						OFFSET 0.000000 -26.933000 0.000000
						CHANNELS 3 Zrotation Xrotation Yrotation
						End Site
						{
						    OFFSET 0.000000 -5.000000 0.000000
						}
					}
				}
			}
		}
	}
}
MOTION
Frames:	7
Frame Time:	0.0333333
-233.935 89.0152 5.64975 -1.59472 -1.13934 91.2285 -0.0101963 -10.3858 1.23524 1.46919 18.8238 11.4547 2.9708 1.23657 0.0330161 1.59028e-015 -5 -0 -1.57065 -9.34536 -0.863268 -1.80444 16.0942 -7.97672 4.60618 5.49473 -0.270776 1.39149e-015 -5 -0 -6.18625 8.14213 -1.779 7.24915 2.8413 -14.0731 -1.59028e-015 -2.70844e-015 -0 13.698 -26.6737 52.7499 -1.57809 -0.106862 -108.138 6.33516 -8.41131 -9.16486 -1.59028e-015 -2.70844e-015 -0 -14.4349 -0.358607 -24.2976 14.6797 -7.39901 51.5035 -0.348056 -1.78421 9.90984 
-233.786 88.9805 4.90767 -1.48427 -0.9748 90.6148 -0.793336 -9.74441 0.953153 1.51342 18.1136 12.4028 3.64497 1.431 0.0320174 -5.16876e-016 -5 3.1927e-015 -1.63857 -10.0254 0.0525933 -2.38182 17.7319 -8.87536 3.34895 4.6264 -0.211599 1.49089e-015 -5 -0 -7.06514 8.30342 -1.92794 8.24735 3.30056 -13.5108 -3.86217e-032 -2.78299e-015 -7.95139e-016 13.3138 -27.7898 51.6623 -1.15914 -0.122352 -109.437 7.03707 -8.67228 -9.06432 -3.86217e-032 -2.78299e-015 -7.95139e-016 -13.6931 0.957197 -24.9364 14.6213 -7.56518 50.8754 -0.307019 -1.88588 9.91382 
-233.546 88.9496 4.28964 -1.26827 -0.956675 90.1217 -1.10075 -9.13813 1.06027 1.32669 17.8173 12.7762 3.91013 1.22687 0.040601 1.72941e-015 -5 1.59635e-015 -1.29288 -10.5784 1.06604 -2.40318 19.5123 -11.3493 2.27482 3.55642 -0.169379 1.72941e-015 -5 1.59635e-015 -7.74707 8.39189 -2.10549 9.18927 3.7828 -12.9546 1.59028e-015 -3.77691e-015 -7.95139e-016 13.2676 -28.4987 50.4525 -1.05931 -0.0863748 -110.484 7.12892 -8.85407 -9.04496 1.59028e-015 -3.77691e-015 -7.95139e-016 -13.0067 2.30324 -27.3695 14.5274 -6.76951 51.922 -0.177741 -2.17947 9.92143 
-233.22 89.0142 3.81636 -0.978762 -1.22208 90.0227 -1.1283 -8.45559 1.17026 1.26954 17.5278 12.8098 4.17466 1.05553 0.0463138 -8.14963e-016 -5 -4.78906e-015 -0.642984 -10.702 0.911881 -1.85292 20.8091 -13.8117 1.88147 2.56877 -0.153187 2.98177e-015 -5 -0 -8.14503 8.54205 -2.38582 10.0651 4.21975 -12.6336 -3.1725e-032 -2.28602e-015 -7.95139e-016 13.4309 -28.8962 48.9807 -1.28406 -0.152478 -110.069 6.89826 -8.95995 -9.06107 -3.1725e-032 -2.28602e-015 -7.95139e-016 -12.2102 3.73577 -30.9678 14.2792 -5.52519 54.1488 -0.0828572 -2.36194 9.92723 
-232.838 89.146 3.45604 -0.727483 -1.63243 90.1925 -1.02957 -7.71593 1.14937 1.42598 17.0206 12.7181 4.34277 1.16489 0.0510578 1.45115e-015 -5 -1.59635e-015 0.276729 -10.4941 -0.14158 -1.12217 21.4936 -14.8215 1.99625 1.54757 -0.144355 -9.44227e-016 -5 -0 -8.21117 8.71042 -2.66021 10.7008 4.62468 -12.4123 -1.59028e-015 -4.77083e-015 -1.59028e-015 13.7709 -29.3447 47.7878 -1.5267 -0.0572515 -109.063 7.01886 -9.05482 -9.04822 -1.59028e-015 -4.77083e-015 -1.59028e-015 -11.4124 5.27274 -34.2354 13.8773 -4.53952 56.2182 -0.0404655 -2.31158 9.93011 
-232.414 89.2514 3.19814 -0.619992 -1.98539 90.0777 -0.906424 -7.03787 1.18667 1.54205 16.4525 12.7143 4.21891 1.27472 0.0514817 2.78299e-015 -5 -0 1.39014 -10.1369 -0.636605 -0.587818 21.5538 -14.424 2.62194 0.544015 -0.129756 1.11323e-015 -5 -3.1927e-015 -8.14278 8.56564 -2.80473 11.0096 5.20721 -11.8696 0 1.88845e-015 -0 14.156 -29.6498 47.2873 -1.66515 -0.00217667 -108.567 7.12447 -9.22645 -9.02966 0 1.88845e-015 -0 -10.9727 6.82253 -36.5676 13.4193 -3.73721 57.889 0.0950963 -2.26536 9.9391 
-231.944 89.2851 3.00758 -0.675781 -2.04626 89.6719 -0.915623 -6.43958 1.33871 1.44961 15.8944 12.9507 4.01471 1.20483 0.0556533 2.50472e-015 -5 -3.1927e-015 2.39749 -9.60561 -0.210916 -0.37762 20.8039 -13.362 3.49704 0.10644 -0.115268 1.47097e-015 -5 3.1927e-015 -8.27137 8.01271 -2.84908 11.203 5.98928 -10.9885 1.59028e-015 -1.39149e-015 7.95139e-016 14.6185 -29.4569 47.0799 -1.99326 -0.137644 -107.625 6.64429 -9.40405 -9.06731 1.59028e-015 -1.39149e-015 7.95139e-016 -10.9127 8.21818 -38.2498 12.872 -2.80651 59.5086 0.302078 -2.26027 9.9525 
